STARTFONT 2.1
COMMENT
COMMENT Converted from OpenType font "..\ttf\ITC Avant Garde Gothic Medium.otf" by "otf2bdf.exe 3.0".
COMMENT
FONT -FreeType-ITC Avant Garde Gothic-Medium-R-Normal--36-260-100-100-P-176-ISO10646-1
SIZE 26 100 100
FONTBOUNDINGBOX 47 46 -4 -10
STARTPROPERTIES 19
FOUNDRY "FreeType"
FAMILY_NAME "ITC Avant Garde Gothic"
WEIGHT_NAME "Medium"
SLANT "R"
SETWIDTH_NAME "Normal"
ADD_STYLE_NAME ""
PIXEL_SIZE 36
POINT_SIZE 260
RESOLUTION_X 100
RESOLUTION_Y 100
SPACING "P"
AVERAGE_WIDTH 176
CHARSET_REGISTRY "ISO10646"
CHARSET_ENCODING "1"
FONT_ASCENT 35
FONT_DESCENT 9
COPYRIGHT "Copyright (c) 1991 Adobe Systems Incorporated.  All Rights Reserved.ITC Avant Garde Gothic is a registered trademark of International Typeface Corporation."
_OTF_FONTFILE "..\ttf\ITC Avant Garde Gothic Medium.otf"
_OTF_PSNAME "AvantGarde-Medium"
ENDPROPERTIES
CHARS 228
STARTCHAR 0020
ENCODING 32
SWIDTH 276 0
DWIDTH 10 0
BBX 0 0 0 0
BITMAP
ENDCHAR
STARTCHAR 0021
ENCODING 33
SWIDTH 276 0
DWIDTH 10 0
BBX 4 27 3 0
BITMAP
F0
F0
F0
F0
F0
F0
F0
F0
F0
F0
F0
F0
F0
F0
F0
F0
F0
F0
F0
F0
00
00
00
F0
F0
F0
F0
ENDCHAR
STARTCHAR 0022
ENCODING 34
SWIDTH 332 0
DWIDTH 12 0
BBX 10 11 1 16
BITMAP
F3C0
F3C0
F3C0
F3C0
F3C0
F3C0
F3C0
F3C0
F3C0
F3C0
F3C0
ENDCHAR
STARTCHAR 0023
ENCODING 35
SWIDTH 553 0
DWIDTH 20 0
BBX 18 25 1 1
BITMAP
038700
038700
078F00
078E00
070E00
070E00
070E00
7FFFC0
7FFFC0
7FFFC0
0F1E00
0E1C00
0E1C00
0E1C00
0E1C00
FFFF80
FFFF80
FFFF80
1C3800
1C3800
1C3800
1C3800
1C3800
1C7800
3C7800
ENDCHAR
STARTCHAR 0024
ENCODING 36
SWIDTH 553 0
DWIDTH 20 0
BBX 16 32 2 -3
BITMAP
03C0
03C0
03C0
03C0
0FF0
1FFC
3FFE
3C3E
7C0F
780F
7800
7800
7C00
3F00
3FF0
0FFC
03FE
007E
001F
000F
000F
F00F
F00F
F81F
7C3E
7FFE
3FFC
0FF0
03C0
03C0
03C0
03C0
ENDCHAR
STARTCHAR 0025
ENCODING 37
SWIDTH 830 0
DWIDTH 30 0
BBX 27 27 2 0
BITMAP
0FC01C00
1FF01800
3FF83800
7CF83000
F87C6000
F03C6000
F03CC000
F03CC000
F83D8000
7C7B8000
7FFB0000
1FE70000
0FC60000
000C0000
000C0000
00187E00
0019FF80
0033FFC0
0033C3C0
006781E0
00E781E0
00C781E0
01C7C1E0
0183E3C0
0303FFC0
0301FF80
06007E00
ENDCHAR
STARTCHAR 0026
ENCODING 38
SWIDTH 692 0
DWIDTH 25 0
BBX 23 27 1 0
BITMAP
01F000
07FC00
0FFE00
0FFE00
1F1F00
1E0F00
1E0F00
1E0F00
1F1F00
0F3E00
0FFE00
07FC7C
0FF078
1FF0F8
3FF8F0
7C7DF0
783FE0
F01FE0
F00FC0
F007C0
F007E0
F80FF0
7C1FF8
7FFE7C
3FFC3E
1FF81C
03E008
ENDCHAR
STARTCHAR 0027
ENCODING 39
SWIDTH 221 0
DWIDTH 8 0
BBX 4 11 2 16
BITMAP
F0
F0
F0
F0
F0
F0
F0
F0
F0
F0
F0
ENDCHAR
STARTCHAR 0028
ENCODING 40
SWIDTH 415 0
DWIDTH 15 0
BBX 11 36 2 -10
BITMAP
0020
00E0
01E0
03E0
07E0
0FC0
0F80
1F00
3E00
3C00
3C00
7800
7800
7800
F000
F000
F000
F000
F000
F000
F000
F000
F800
7800
7800
7C00
3C00
3E00
1F00
1F00
0F80
07E0
03E0
01E0
00E0
0060
ENDCHAR
STARTCHAR 0029
ENCODING 41
SWIDTH 415 0
DWIDTH 15 0
BBX 11 36 2 -9
BITMAP
8000
E000
F000
F800
FC00
7E00
3E00
1F00
0F80
0780
07C0
03C0
03C0
03E0
01E0
01E0
01E0
01E0
01E0
01E0
01E0
01E0
01E0
03C0
03C0
07C0
0780
0F80
1F00
1F00
3E00
FC00
F800
F000
E000
C000
ENDCHAR
STARTCHAR 002A
ENCODING 42
SWIDTH 581 0
DWIDTH 21 0
BBX 14 13 3 13
BITMAP
0300
0300
0300
0300
F33C
FFFC
3FF0
0780
0FC0
0DE0
1CE0
3870
1020
ENDCHAR
STARTCHAR 002B
ENCODING 43
SWIDTH 609 0
DWIDTH 22 0
BBX 18 17 2 1
BITMAP
01E000
01E000
01E000
01E000
01E000
01E000
01E000
FFFFC0
FFFFC0
FFFFC0
01E000
01E000
01E000
01E000
01E000
01E000
01E000
ENDCHAR
STARTCHAR 002C
ENCODING 44
SWIDTH 276 0
DWIDTH 10 0
BBX 4 8 3 -4
BITMAP
F0
F0
F0
F0
70
70
E0
E0
ENDCHAR
STARTCHAR 002D
ENCODING 45
SWIDTH 276 0
DWIDTH 10 0
BBX 10 3 0 9
BITMAP
FFC0
FFC0
FFC0
ENDCHAR
STARTCHAR 002E
ENCODING 46
SWIDTH 276 0
DWIDTH 10 0
BBX 4 4 3 1
BITMAP
F0
F0
F0
F0
ENDCHAR
STARTCHAR 002F
ENCODING 47
SWIDTH 498 0
DWIDTH 18 0
BBX 14 30 2 -4
BITMAP
003C
0078
0078
0078
00F0
00F0
00F0
01E0
01E0
01E0
03C0
03C0
03C0
0780
0780
0780
0F00
0F00
0F00
1E00
1E00
1E00
3C00
3C00
7C00
7800
7800
F800
F000
F000
ENDCHAR
STARTCHAR 0030
ENCODING 48
SWIDTH 553 0
DWIDTH 20 0
BBX 18 27 1 0
BITMAP
03F000
0FFC00
1FFF00
3FBF00
7C0F80
7807C0
F003C0
F003C0
F003C0
F003C0
F003C0
F003C0
F003C0
F003C0
F003C0
F003C0
F003C0
F003C0
F003C0
F003C0
F003C0
7807C0
7C0F80
3F7F00
1FFE00
0FFC00
03F000
ENDCHAR
STARTCHAR 0031
ENCODING 49
SWIDTH 553 0
DWIDTH 20 0
BBX 8 27 5 0
BITMAP
FF
FF
FF
0F
0F
0F
0F
0F
0F
0F
0F
0F
0F
0F
0F
0F
0F
0F
0F
0F
0F
0F
0F
0F
0F
0F
0F
ENDCHAR
STARTCHAR 0032
ENCODING 50
SWIDTH 553 0
DWIDTH 20 0
BBX 17 27 1 0
BITMAP
03F000
0FF800
1FFE00
3F7E00
7C1F00
780F00
F00780
F00780
F00780
F00780
000780
000F80
001F00
003E00
007E00
00FC00
01F800
03F000
07E000
0FC000
1F8000
3F0000
7E0000
FC0000
FFFF80
FFFF80
FFFF80
ENDCHAR
STARTCHAR 0033
ENCODING 51
SWIDTH 553 0
DWIDTH 20 0
BBX 17 27 1 0
BITMAP
03F000
0FF800
1FFC00
1F7E00
3C1F00
3C0F00
380F00
000F00
000F00
001F00
003E00
01FC00
01FC00
01FE00
003F00
000F00
000F80
000780
000780
F00780
F00780
F80F80
781F00
7F7F00
3FFE00
0FFC00
03E000
ENDCHAR
STARTCHAR 0034
ENCODING 52
SWIDTH 553 0
DWIDTH 20 0
BBX 19 27 1 0
BITMAP
000F00
001F00
003F00
003F00
007F00
007F00
00FF00
01FF00
01EF00
03CF00
03CF00
078F00
0F8F00
0F0F00
1E0F00
3E0F00
3C0F00
7C0F00
780F00
F00F00
FFFFE0
FFFFE0
FFFFE0
000F00
000F00
000F00
000F00
ENDCHAR
STARTCHAR 0035
ENCODING 53
SWIDTH 553 0
DWIDTH 20 0
BBX 18 27 1 0
BITMAP
1FFE00
1FFE00
1FFE00
1C0000
1C0000
1C0000
3C0000
3C0000
3C0000
3FF000
3FFC00
3FFF00
3E1F00
780F80
080780
0003C0
0003C0
0003C0
0003C0
F003C0
F007C0
780780
7C0F80
3FFF00
1FFE00
0FFC00
03F000
ENDCHAR
STARTCHAR 0036
ENCODING 54
SWIDTH 553 0
DWIDTH 20 0
BBX 19 27 1 0
BITMAP
007C00
007800
00F800
01F000
01E000
03E000
07C000
07C000
0F8000
0FF800
1FFE00
3FFF80
3E0F80
7C07C0
7803C0
F001E0
F001E0
F001E0
F001E0
F001E0
F803E0
7803C0
7C07C0
3FBF80
1FFF00
0FFE00
03F800
ENDCHAR
STARTCHAR 0037
ENCODING 55
SWIDTH 553 0
DWIDTH 20 0
BBX 16 27 2 0
BITMAP
FFFF
FFFF
FFFF
000F
000F
001E
001E
003C
003C
0078
0078
0078
00F0
00F0
01E0
01E0
03E0
03C0
03C0
0780
0780
0F00
0F00
1F00
1E00
1E00
3C00
ENDCHAR
STARTCHAR 0038
ENCODING 56
SWIDTH 553 0
DWIDTH 20 0
BBX 17 27 2 0
BITMAP
03E000
0FF800
1FFC00
3F7E00
3C1E00
780F00
780F00
780F00
780F00
7C1F00
3E3E00
1FFC00
1FFC00
3FFE00
7E3F00
780F00
F80F80
F00780
F00780
F00780
F00780
F80F00
7C1F00
3F7E00
3FFE00
0FF800
03E000
ENDCHAR
STARTCHAR 0039
ENCODING 57
SWIDTH 553 0
DWIDTH 20 0
BBX 18 27 1 0
BITMAP
03F000
0FFC00
1FFE00
3FFF00
7C0F80
780780
F807C0
F003C0
F003C0
F003C0
F003C0
F003C0
780780
7C0F80
3E1F80
3FFF00
0FFE00
03FE00
003C00
007800
00F800
00F000
01F000
01E000
03C000
03C000
078000
ENDCHAR
STARTCHAR 003A
ENCODING 58
SWIDTH 276 0
DWIDTH 10 0
BBX 4 20 3 0
BITMAP
F0
F0
F0
F0
00
00
00
00
00
00
00
00
00
00
00
00
F0
F0
F0
F0
ENDCHAR
STARTCHAR 003B
ENCODING 59
SWIDTH 276 0
DWIDTH 10 0
BBX 4 24 3 -5
BITMAP
F0
F0
F0
F0
00
00
00
00
00
00
00
00
00
00
00
00
F0
F0
F0
F0
70
70
E0
E0
ENDCHAR
STARTCHAR 003C
ENCODING 60
SWIDTH 609 0
DWIDTH 22 0
BBX 18 18 2 0
BITMAP
0000C0
0007C0
001FC0
007F80
03FE00
0FF800
3FC000
FF0000
FC0000
FC0000
FF8000
3FE000
07F800
01FE00
007FC0
000FC0
0003C0
0000C0
ENDCHAR
STARTCHAR 003D
ENCODING 61
SWIDTH 609 0
DWIDTH 22 0
BBX 18 11 2 3
BITMAP
FFFFC0
FFFFC0
FFFFC0
000000
000000
000000
000000
000000
FFFFC0
FFFFC0
FFFFC0
ENDCHAR
STARTCHAR 003E
ENCODING 62
SWIDTH 609 0
DWIDTH 22 0
BBX 18 19 2 0
BITMAP
800000
E00000
F80000
FF0000
3FC000
0FF000
03FE00
00FF80
001FC0
0007C0
001FC0
007F80
03FE00
0FF800
3FC000
FF0000
FC0000
E00000
800000
ENDCHAR
STARTCHAR 003F
ENCODING 63
SWIDTH 526 0
DWIDTH 19 0
BBX 17 27 1 0
BITMAP
07E000
1FF800
3FFE00
7FFE00
7C1F00
F80F80
F00780
F00780
000780
000780
000F80
001F00
003E00
007C00
00F800
01F000
01E000
03E000
03C000
03C000
000000
000000
000000
03C000
03C000
03C000
03C000
ENDCHAR
STARTCHAR 0040
ENCODING 64
SWIDTH 747 0
DWIDTH 27 0
BBX 27 27 0 0
BITMAP
003FC000
01FFF800
03FFFE00
0FC01F00
1F000780
1E000380
3C0001C0
781F39C0
703FB8E0
707FF8E0
E0F0F0E0
E0E070E0
E1C070E0
E1C070E0
E1C070E0
E1C060C0
E1C0E1C0
71E1E380
70FFFF80
787F7F00
383E3C00
1C000000
1F000100
0FC00F00
03FFFF00
01FFFC00
003FE000
ENDCHAR
STARTCHAR 0041
ENCODING 65
SWIDTH 692 0
DWIDTH 25 0
BBX 24 27 0 0
BITMAP
003C00
003C00
007E00
007E00
007E00
00FF00
00FF00
01E780
01E780
01E780
03C3C0
03C3C0
07C3E0
0781E0
0781E0
0F81F0
0FFFF0
0FFFF0
1FFFF8
1E0078
3E007C
3C003C
3C003C
78003E
78001E
78001E
F0000F
ENDCHAR
STARTCHAR 0042
ENCODING 66
SWIDTH 581 0
DWIDTH 21 0
BBX 17 27 3 0
BITMAP
FFC000
FFF000
FFF800
FFFC00
F03C00
F01E00
F01E00
F01E00
F01E00
F01E00
F03E00
F07C00
FFF800
FFF800
FFFE00
F03F00
F00F00
F00780
F00780
F00780
F00780
F00F80
F01F00
FFFF00
FFFE00
FFFC00
FFE000
ENDCHAR
STARTCHAR 0043
ENCODING 67
SWIDTH 775 0
DWIDTH 28 0
BBX 26 27 1 0
BITMAP
003FC000
00FFF000
03FFFC00
07FFFE00
0FC03F00
1F000F80
3E0007C0
7C000000
78000000
78000000
F0000000
F0000000
F0000000
F0000000
F0000000
F0000000
F8000000
78000000
78000000
3C000000
3E0007C0
1F000F80
0FC03F00
07FFFE00
03FFFC00
00FFF000
003F8000
ENDCHAR
STARTCHAR 0044
ENCODING 68
SWIDTH 720 0
DWIDTH 26 0
BBX 23 27 2 0
BITMAP
FFF800
FFFF00
FFFFC0
FFFFE0
F007F0
F001F8
F000F8
F0007C
F0003C
F0003C
F0001E
F0001E
F0001E
F0001E
F0001E
F0001E
F0001E
F0003E
F0003C
F0007C
F00078
F000F8
F003F0
FFFFE0
FFFFC0
FFFF00
FFF800
ENDCHAR
STARTCHAR 0045
ENCODING 69
SWIDTH 526 0
DWIDTH 19 0
BBX 15 27 2 0
BITMAP
FFFE
FFFE
FFFE
FFFE
F000
F000
F000
F000
F000
F000
F000
F000
FFFE
FFFE
FFFE
F000
F000
F000
F000
F000
F000
F000
F000
FFFE
FFFE
FFFE
FFFE
ENDCHAR
STARTCHAR 0046
ENCODING 70
SWIDTH 470 0
DWIDTH 17 0
BBX 14 27 2 0
BITMAP
FFFC
FFFC
FFFC
FFFC
F000
F000
F000
F000
F000
F000
F000
F000
FFFC
FFFC
FFFC
F000
F000
F000
F000
F000
F000
F000
F000
F000
F000
F000
F000
ENDCHAR
STARTCHAR 0047
ENCODING 71
SWIDTH 830 0
DWIDTH 30 0
BBX 28 27 1 0
BITMAP
003F8000
00FFF000
03FFFC00
07FFFE00
0FC03F00
1F000F80
3E000780
3C000000
7C000000
78000000
F8000000
F0000000
F0000000
F0000000
F01FFFF0
F01FFFE0
F01FFFE0
780001E0
780003E0
7C0003C0
3E0007C0
1F000F80
1FC03F00
0FFFFE00
03FFFC00
01FFF000
003F8000
ENDCHAR
STARTCHAR 0048
ENCODING 72
SWIDTH 664 0
DWIDTH 24 0
BBX 19 27 3 0
BITMAP
F001E0
F001E0
F001E0
F001E0
F001E0
F001E0
F001E0
F001E0
F001E0
F001E0
F001E0
F001E0
FFFFE0
FFFFE0
FFFFE0
F001E0
F001E0
F001E0
F001E0
F001E0
F001E0
F001E0
F001E0
F001E0
F001E0
F001E0
F001E0
ENDCHAR
STARTCHAR 0049
ENCODING 73
SWIDTH 249 0
DWIDTH 9 0
BBX 4 27 3 0
BITMAP
F0
F0
F0
F0
F0
F0
F0
F0
F0
F0
F0
F0
F0
F0
F0
F0
F0
F0
F0
F0
F0
F0
F0
F0
F0
F0
F0
ENDCHAR
STARTCHAR 004A
ENCODING 74
SWIDTH 498 0
DWIDTH 18 0
BBX 15 27 0 0
BITMAP
001E
001E
001E
001E
001E
001E
001E
001E
001E
001E
001E
001E
001E
001E
001E
001E
001E
001E
001E
001E
001E
F01E
783C
7FFC
3FF8
1FF0
07C0
ENDCHAR
STARTCHAR 004B
ENCODING 75
SWIDTH 609 0
DWIDTH 22 0
BBX 19 27 3 0
BITMAP
F003E0
F007C0
F00F80
F00F00
F01F00
F03E00
F07C00
F07800
F0F000
F1F000
F3E000
F3C000
F78000
FF8000
F78000
F3C000
F3E000
F1F000
F0F800
F07800
F07C00
F03E00
F01F00
F00F00
F00F80
F007C0
F003E0
ENDCHAR
STARTCHAR 004C
ENCODING 76
SWIDTH 443 0
DWIDTH 16 0
BBX 13 27 3 0
BITMAP
F000
F000
F000
F000
F000
F000
F000
F000
F000
F000
F000
F000
F000
F000
F000
F000
F000
F000
F000
F000
F000
F000
F000
FFF8
FFF8
FFF8
FFF8
ENDCHAR
STARTCHAR 004D
ENCODING 77
SWIDTH 941 0
DWIDTH 34 0
BBX 28 27 3 0
BITMAP
FC0003F0
FE0007F0
FE0007F0
FF0007F0
FF000FF0
F7000EF0
F7801EF0
F7801EF0
F3801CF0
F3C03CF0
F3C038F0
F1E078F0
F1E078F0
F0E070F0
F0F0F0F0
F0F0F0F0
F070E0F0
F079E0F0
F039C0F0
F03FC0F0
F03FC0F0
F01F80F0
F01F80F0
F01F00F0
F00F00F0
F00F00F0
F00600F0
ENDCHAR
STARTCHAR 004E
ENCODING 78
SWIDTH 747 0
DWIDTH 27 0
BBX 21 27 3 0
BITMAP
F80078
F80078
FC0078
FE0078
FE0078
FF0078
FF0078
F78078
F3C078
F3C078
F1E078
F1E078
F0F078
F07878
F07878
F03C78
F03C78
F01E78
F00F78
F00F78
F007F8
F007F8
F003F8
F001F8
F001F8
F000F8
F00078
ENDCHAR
STARTCHAR 004F
ENCODING 79
SWIDTH 858 0
DWIDTH 31 0
BBX 28 27 1 0
BITMAP
003FC000
00FFF800
03FFFC00
07FFFF00
0FC03F80
1F000F80
3E0007C0
3C0003E0
780001E0
780001E0
F80000F0
F00000F0
F00000F0
F00000F0
F00000F0
F00000F0
F80000F0
780001E0
780001E0
7C0003E0
3E0007C0
1F000F80
0FC03F00
07FFFE00
03FFFC00
00FFF000
003FC000
ENDCHAR
STARTCHAR 0050
ENCODING 80
SWIDTH 553 0
DWIDTH 20 0
BBX 18 27 2 0
BITMAP
FFF000
FFFE00
FFFF00
FFFF80
F00F80
F007C0
F003C0
F003C0
F003C0
F003C0
F007C0
F00F80
FFFF80
FFFF00
FFFE00
FFF000
F00000
F00000
F00000
F00000
F00000
F00000
F00000
F00000
F00000
F00000
F00000
ENDCHAR
STARTCHAR 0051
ENCODING 81
SWIDTH 830 0
DWIDTH 30 0
BBX 29 27 1 0
BITMAP
003FC000
00FFF000
03FFFC00
07FFFE00
0FC03F00
1F000F80
3E0007C0
3C0003C0
7C0003E0
780001E0
F80001F0
F00000F0
F00000F0
F00000F0
F00000F0
F00000F0
F7F800F0
7FFF01F0
7FFFE1E0
7C07F3E0
3E01FFC0
1F007F80
1FC03F80
0FFFFFF8
03FFFFF8
01FFF9F8
003FC078
ENDCHAR
STARTCHAR 0052
ENCODING 82
SWIDTH 581 0
DWIDTH 21 0
BBX 18 27 2 0
BITMAP
FFF000
FFFE00
FFFF00
FFFF80
F00F80
F007C0
F003C0
F003C0
F003C0
F003C0
F003C0
F007C0
F00F80
F03F80
FFFF00
FFFE00
F7FC00
F3C000
F1E000
F1F000
F0F800
F07C00
F03C00
F03E00
F01F00
F00F80
F00F80
ENDCHAR
STARTCHAR 0053
ENCODING 83
SWIDTH 498 0
DWIDTH 18 0
BBX 17 27 1 0
BITMAP
03E000
0FF800
1FFC00
3FFE00
3C1F00
780F00
780F00
780000
780000
7C0000
3F0000
3FE000
1FF800
07FE00
00FF00
003F00
000F80
000780
000780
F00780
F00780
F80F80
7C1F00
7FFF00
3FFE00
1FFC00
07F000
ENDCHAR
STARTCHAR 0054
ENCODING 84
SWIDTH 415 0
DWIDTH 15 0
BBX 14 27 0 0
BITMAP
FFFC
FFFC
FFFC
FFFC
0780
0780
0780
0780
0780
0780
0780
0780
0780
0780
0780
0780
0780
0780
0780
0780
0780
0780
0780
0780
0780
0780
0780
ENDCHAR
STARTCHAR 0055
ENCODING 85
SWIDTH 636 0
DWIDTH 23 0
BBX 18 27 3 0
BITMAP
F003C0
F003C0
F003C0
F003C0
F003C0
F003C0
F003C0
F003C0
F003C0
F003C0
F003C0
F003C0
F003C0
F003C0
F003C0
F003C0
F003C0
F003C0
F003C0
F003C0
F803C0
780780
7C0F80
3FFF00
3FFF00
0FFC00
03F000
ENDCHAR
STARTCHAR 0056
ENCODING 86
SWIDTH 692 0
DWIDTH 25 0
BBX 24 27 0 0
BITMAP
F0000F
78001E
78001E
7C001E
3C003C
3C003C
1E0078
1E0078
1F0078
0F00F0
0F00F0
0781E0
0781E0
0781E0
03C3C0
03C3C0
01E780
01E780
01E780
00FF00
00FF00
007E00
007E00
007E00
003C00
003C00
001800
ENDCHAR
STARTCHAR 0057
ENCODING 87
SWIDTH 913 0
DWIDTH 33 0
BBX 32 27 1 0
BITMAP
F003C00F
F003C00F
7803C01E
7803C01E
7807E01E
3C07E01C
3C07E03C
3C07E03C
3C0FF03C
1E0FF078
1E0E7078
1E0E7078
1E1E7870
0F1E78F0
0F1C38F0
0F1C38F0
073C3CE0
07BC3DE0
07B81DE0
07B81DE0
03F81FC0
03F01FC0
03F00FC0
01F00F80
01F00F80
01E00780
01E00780
ENDCHAR
STARTCHAR 0058
ENCODING 88
SWIDTH 636 0
DWIDTH 23 0
BBX 23 27 0 0
BITMAP
F8003E
7C007C
3C0078
3E00F8
1F01F0
0F01E0
0F83E0
07C7C0
03C780
03EF80
01FF00
00FE00
00FE00
007C00
00FE00
00FE00
01FF00
03EF80
03C780
07C7C0
0F83E0
0F01E0
1F01F0
3E00F8
3C0078
7C007C
F8003E
ENDCHAR
STARTCHAR 0059
ENCODING 89
SWIDTH 581 0
DWIDTH 21 0
BBX 20 27 1 0
BITMAP
F000F0
F801F0
7801E0
7C03E0
3C03C0
3E07C0
1E0780
1F0F80
0F0F00
0F9F00
079E00
079E00
03FC00
03FC00
01F800
01F800
00F000
00F000
00F000
00F000
00F000
00F000
00F000
00F000
00F000
00F000
00F000
ENDCHAR
STARTCHAR 005A
ENCODING 90
SWIDTH 470 0
DWIDTH 17 0
BBX 16 27 0 0
BITMAP
7FFF
7FFF
7FFF
7FFF
001E
003E
003C
007C
00F8
00F8
01F0
01E0
03E0
03C0
07C0
0780
0F00
1F00
1E00
3E00
3C00
7800
7800
FFFF
FFFF
FFFF
FFFF
ENDCHAR
STARTCHAR 005B
ENCODING 91
SWIDTH 415 0
DWIDTH 15 0
BBX 8 37 5 -10
BITMAP
03
07
1F
3F
3E
7C
78
F8
F0
F0
F0
F0
F0
F0
F0
F0
F0
F0
F0
F0
F0
F0
F0
F0
F0
F0
F0
F0
F0
F8
7C
7E
3F
1F
0F
07
01
ENDCHAR
STARTCHAR 005C
ENCODING 92
SWIDTH 498 0
DWIDTH 18 0
BBX 14 30 3 -4
BITMAP
F000
F000
F000
7800
7800
7800
3C00
3C00
3E00
1E00
1E00
1F00
0F00
0F00
0F80
0780
0780
07C0
03C0
03C0
01E0
01E0
01E0
00F0
00F0
00F0
0078
0078
0078
003C
ENDCHAR
STARTCHAR 005D
ENCODING 93
SWIDTH 415 0
DWIDTH 15 0
BBX 8 37 2 -10
BITMAP
C0
E0
F8
FC
7C
3E
1E
1F
0F
0F
0F
0F
0F
0F
0F
0F
0F
0F
0F
0F
0F
0F
0F
0F
0F
0F
0F
0F
0F
1F
3E
7E
FC
F8
F0
E0
80
ENDCHAR
STARTCHAR 005E
ENCODING 94
SWIDTH 609 0
DWIDTH 22 0
BBX 17 14 2 13
BITMAP
01E000
03E000
03E000
07F000
077000
0F7800
0E3800
1E3C00
1C1C00
3C1E00
380E00
780F00
780700
F00780
ENDCHAR
STARTCHAR 005F
ENCODING 95
SWIDTH 498 0
DWIDTH 18 0
BBX 18 2 0 -5
BITMAP
FFFFC0
FFFFC0
ENDCHAR
STARTCHAR 0060
ENCODING 96
SWIDTH 553 0
DWIDTH 20 0
BBX 9 7 4 23
BITMAP
6000
F800
FE00
3F80
0F80
0380
0100
ENDCHAR
STARTCHAR 0061
ENCODING 97
SWIDTH 692 0
DWIDTH 25 0
BBX 22 20 1 0
BITMAP
01FC3C
07FF3C
0FFFBC
1FCFFC
3E01FC
7C00FC
78007C
F8003C
F0003C
F0003C
F0003C
F0003C
F8003C
78007C
7C00FC
3E01FC
3FCFFC
1FFFBC
07FF3C
01FC3C
ENDCHAR
STARTCHAR 0062
ENCODING 98
SWIDTH 692 0
DWIDTH 25 0
BBX 22 27 2 0
BITMAP
F00000
F00000
F00000
F00000
F00000
F00000
F00000
F0FE00
F3FF80
F7FFC0
FFCFE0
FE01F0
FC00F8
F80078
F8007C
F0003C
F0003C
F0003C
F0003C
F8007C
F80078
FC00F8
FE01F0
FFEFE0
F7FFC0
F3FF80
F0FE00
ENDCHAR
STARTCHAR 0063
ENCODING 99
SWIDTH 636 0
DWIDTH 23 0
BBX 20 20 1 0
BITMAP
01FC00
07FF00
0FFF80
1FDFC0
3E03E0
7C01F0
7800F0
F00000
F00000
F00000
F00000
F00000
F80000
7800F0
7C01F0
3E03E0
3FDFC0
1FFF80
07FF00
01FC00
ENDCHAR
STARTCHAR 0064
ENCODING 100
SWIDTH 692 0
DWIDTH 25 0
BBX 22 27 1 0
BITMAP
00003C
00003C
00003C
00003C
00003C
00003C
00003C
01FC3C
07FF3C
0FFFFC
1FCFFC
3E01FC
7C00FC
78007C
F8003C
F0003C
F0003C
F0003C
F0003C
F8003C
78007C
7C00FC
3E01FC
3FEFFC
1FFFBC
07FF3C
01FC3C
ENDCHAR
STARTCHAR 0065
ENCODING 101
SWIDTH 636 0
DWIDTH 23 0
BBX 21 20 1 0
BITMAP
01FC00
07FF00
0FFFC0
1FDFE0
3E03E0
7C01F0
7800F0
F00078
F00078
FFFFF8
FFFFF8
FFFFF8
F00000
780000
7C00F0
3E01E0
3FDFE0
1FFFC0
07FF00
01FC00
ENDCHAR
STARTCHAR 0066
ENCODING 102
SWIDTH 276 0
DWIDTH 10 0
BBX 10 27 1 0
BITMAP
03C0
0FC0
1FC0
1F80
3C00
3C00
3C00
FFC0
FFC0
FFC0
3C00
3C00
3C00
3C00
3C00
3C00
3C00
3C00
3C00
3C00
3C00
3C00
3C00
3C00
3C00
3C00
3C00
ENDCHAR
STARTCHAR 0067
ENCODING 103
SWIDTH 692 0
DWIDTH 25 0
BBX 22 28 1 -8
BITMAP
00FC3C
07FF3C
0FFFFC
1FDFFC
3E01FC
7C00FC
78007C
F8003C
F0003C
F0003C
F0003C
F0003C
F8007C
78007C
7C00FC
3E01FC
1FCFFC
0FFFBC
07FF3C
01FC3C
00003C
780078
7C0078
3E00F0
1F83F0
0FFFE0
07FF80
01FE00
ENDCHAR
STARTCHAR 0068
ENCODING 104
SWIDTH 609 0
DWIDTH 22 0
BBX 18 27 2 0
BITMAP
F00000
F00000
F00000
F00000
F00000
F00000
F00000
F1F800
F7FE00
FFFF00
FFBF80
FC0F80
F807C0
F803C0
F003C0
F003C0
F003C0
F003C0
F003C0
F003C0
F003C0
F003C0
F003C0
F003C0
F003C0
F003C0
F003C0
ENDCHAR
STARTCHAR 0069
ENCODING 105
SWIDTH 249 0
DWIDTH 9 0
BBX 4 27 2 0
BITMAP
F0
F0
F0
F0
00
00
00
F0
F0
F0
F0
F0
F0
F0
F0
F0
F0
F0
F0
F0
F0
F0
F0
F0
F0
F0
F0
ENDCHAR
STARTCHAR 006A
ENCODING 106
SWIDTH 249 0
DWIDTH 9 0
BBX 6 35 1 -8
BITMAP
3C
3C
3C
3C
00
00
00
3C
3C
3C
3C
3C
3C
3C
3C
3C
3C
3C
3C
3C
3C
3C
3C
3C
3C
3C
3C
3C
3C
3C
7C
F8
F0
E0
80
ENDCHAR
STARTCHAR 006B
ENCODING 107
SWIDTH 553 0
DWIDTH 20 0
BBX 16 27 3 0
BITMAP
F000
F000
F000
F000
F000
F000
F000
F01E
F03C
F07C
F078
F0F0
F1E0
F3C0
F780
F780
FF80
F7C0
F3C0
F1E0
F1F0
F0F8
F078
F03C
F03E
F01F
F00F
ENDCHAR
STARTCHAR 006C
ENCODING 108
SWIDTH 249 0
DWIDTH 9 0
BBX 4 27 2 0
BITMAP
F0
F0
F0
F0
F0
F0
F0
F0
F0
F0
F0
F0
F0
F0
F0
F0
F0
F0
F0
F0
F0
F0
F0
F0
F0
F0
F0
ENDCHAR
STARTCHAR 006D
ENCODING 109
SWIDTH 969 0
DWIDTH 35 0
BBX 31 20 2 0
BITMAP
F1F80FC0
F7FE3FF0
FFFF7FF8
FFBFFDFC
FC0FE03C
F807E03E
F003C01E
F003C01E
F003C01E
F003C01E
F003C01E
F003C01E
F003C01E
F003C01E
F003C01E
F003C01E
F003C01E
F003C01E
F003C01E
F003C01E
ENDCHAR
STARTCHAR 006E
ENCODING 110
SWIDTH 636 0
DWIDTH 23 0
BBX 18 20 2 0
BITMAP
F1F800
F7FE00
FFFF00
FFBF80
FC0F80
F807C0
F803C0
F003C0
F003C0
F003C0
F003C0
F003C0
F003C0
F003C0
F003C0
F003C0
F003C0
F003C0
F003C0
F003C0
ENDCHAR
STARTCHAR 006F
ENCODING 111
SWIDTH 664 0
DWIDTH 24 0
BBX 22 20 1 0
BITMAP
00FE00
07FF80
0FFFC0
1FCFE0
3E01F0
7C00F8
780078
F8007C
F0003C
F0003C
F0003C
F0003C
F8007C
780078
7C00F8
3E01F0
1FCFE0
0FFFC0
07FF80
01FC00
ENDCHAR
STARTCHAR 0070
ENCODING 112
SWIDTH 692 0
DWIDTH 25 0
BBX 22 27 2 -7
BITMAP
F0FE00
F3FF80
F7FFE0
FFDFF0
FE01F0
FC00F8
F80078
F8007C
F0003C
F0003C
F0003C
F0003C
F8003C
F80078
FC00F8
FE01F0
FFDFF0
F7FFE0
F3FF80
F0FE00
F00000
F00000
F00000
F00000
F00000
F00000
F00000
ENDCHAR
STARTCHAR 0071
ENCODING 113
SWIDTH 692 0
DWIDTH 25 0
BBX 22 27 1 -7
BITMAP
01FC3C
07FF3C
0FFFBC
1FCFFC
3E01FC
7C00FC
78007C
F8007C
F0003C
F0003C
F0003C
F0003C
F8003C
78007C
7C00FC
3E01FC
1FEFFC
0FFFBC
07FF3C
01FC3C
00003C
00003C
00003C
00003C
00003C
00003C
00003C
ENDCHAR
STARTCHAR 0072
ENCODING 114
SWIDTH 332 0
DWIDTH 12 0
BBX 9 20 2 0
BITMAP
F380
F780
FF80
FF80
FC00
F800
F800
F000
F000
F000
F000
F000
F000
F000
F000
F000
F000
F000
F000
F000
ENDCHAR
STARTCHAR 0073
ENCODING 115
SWIDTH 415 0
DWIDTH 15 0
BBX 14 20 1 0
BITMAP
07C0
1FE0
3FF0
7EF8
7878
7838
7800
7E00
3FC0
1FF0
07F8
01FC
007C
F03C
F03C
F83C
7EF8
7FF8
1FF0
0FC0
ENDCHAR
STARTCHAR 0074
ENCODING 116
SWIDTH 276 0
DWIDTH 10 0
BBX 10 27 0 0
BITMAP
1E00
1E00
1E00
1E00
1E00
1E00
1E00
FFC0
FFC0
FFC0
1E00
1E00
1E00
1E00
1E00
1E00
1E00
1E00
1E00
1E00
1E00
1E00
1E00
1E00
1E00
1E00
1E00
ENDCHAR
STARTCHAR 0075
ENCODING 117
SWIDTH 636 0
DWIDTH 23 0
BBX 18 20 2 0
BITMAP
F003C0
F003C0
F003C0
F003C0
F003C0
F003C0
F003C0
F003C0
F003C0
F003C0
F003C0
F003C0
F003C0
F003C0
F807C0
7C0FC0
7F7FC0
3FFFC0
1FFBC0
07E3C0
ENDCHAR
STARTCHAR 0076
ENCODING 118
SWIDTH 526 0
DWIDTH 19 0
BBX 18 20 0 0
BITMAP
F003C0
700380
780780
780780
3C0700
3C0F00
3C0F00
1E1E00
1E1E00
0E1C00
0F3C00
0F3C00
073800
07F800
03F000
03F000
03F000
01E000
01E000
00E000
ENDCHAR
STARTCHAR 0077
ENCODING 119
SWIDTH 803 0
DWIDTH 29 0
BBX 28 20 0 0
BITMAP
F00600F0
780F01E0
780F01E0
780F01E0
3C1F83C0
3C1F83C0
3C1F83C0
1E3FC780
1E39C780
0E39C700
0F79EF00
0F70EF00
0770EE00
07F0FE00
07E07E00
03E07C00
03E07C00
01C03800
01C03800
01C03800
ENDCHAR
STARTCHAR 0078
ENCODING 120
SWIDTH 526 0
DWIDTH 19 0
BBX 19 20 0 0
BITMAP
7803C0
7C07C0
3E0F80
1E0F00
1F1E00
0FBE00
07FC00
07F800
03F800
01F000
01F000
03F800
07FC00
07BC00
0F1E00
1F1F00
3E0F80
3C0780
7C07C0
F803E0
ENDCHAR
STARTCHAR 0079
ENCODING 121
SWIDTH 581 0
DWIDTH 21 0
BBX 20 27 0 -7
BITMAP
F000F0
7801E0
7801E0
7801E0
3C03C0
3C03C0
1E0780
1E0780
1E0780
0F0F00
0F0F00
070E00
079E00
079C00
03FC00
03FC00
01F800
01F800
01F000
00F000
00F000
01E000
01E000
03C000
03C000
03C000
078000
ENDCHAR
STARTCHAR 007A
ENCODING 122
SWIDTH 415 0
DWIDTH 15 0
BBX 14 20 0 0
BITMAP
7FF8
7FF8
7FF8
0078
0078
00F0
01E0
01E0
03C0
0780
0F80
0F00
1E00
3E00
3C00
7800
F800
FFFC
FFFC
FFFC
ENDCHAR
STARTCHAR 007B
ENCODING 123
SWIDTH 332 0
DWIDTH 12 0
BBX 12 34 1 -7
BITMAP
01F0
07F0
07F0
0F80
0F00
0F00
0F00
0F00
0F00
0F00
0F00
0F00
0F00
0F00
1F00
3E00
FC00
F000
FE00
3F00
1F00
0F00
0F00
0F00
0F00
0F00
0F00
0F00
0F00
0F00
0F80
07F0
07F0
01F0
ENDCHAR
STARTCHAR 007C
ENCODING 124
SWIDTH 553 0
DWIDTH 20 0
BBX 4 30 8 -4
BITMAP
F0
F0
F0
F0
F0
F0
F0
F0
F0
F0
F0
F0
F0
F0
F0
F0
F0
F0
F0
F0
F0
F0
F0
F0
F0
F0
F0
F0
F0
F0
ENDCHAR
STARTCHAR 007D
ENCODING 125
SWIDTH 332 0
DWIDTH 12 0
BBX 12 34 0 -7
BITMAP
F800
FE00
FE00
1F00
0F00
0F00
0F00
0F00
0F00
0F00
0F00
0F00
0F00
0F00
0F80
07C0
07F0
00F0
07F0
07C0
0F00
0F00
0F00
0F00
0F00
0F00
0F00
0F00
0F00
0F00
1F00
FE00
FE00
F800
ENDCHAR
STARTCHAR 007E
ENCODING 126
SWIDTH 609 0
DWIDTH 22 0
BBX 17 6 2 6
BITMAP
3E0100
7FC300
FFFF80
E1FF00
40FE00
403C00
ENDCHAR
STARTCHAR 00A1
ENCODING 161
SWIDTH 276 0
DWIDTH 10 0
BBX 4 27 3 -7
BITMAP
F0
F0
F0
F0
00
00
00
F0
F0
F0
F0
F0
F0
F0
F0
F0
F0
F0
F0
F0
F0
F0
F0
F0
F0
F0
F0
ENDCHAR
STARTCHAR 00A2
ENCODING 162
SWIDTH 553 0
DWIDTH 20 0
BBX 18 25 1 2
BITMAP
00F000
00F000
00F000
00F000
07FE00
1FFF00
3FFF80
3F0FC0
7C03C0
780000
F00000
F00000
F00000
F00000
F00000
780000
7C03C0
3E07C0
3FFF80
1FFF00
07FE00
00F000
00F000
00F000
00F000
ENDCHAR
STARTCHAR 00A3
ENCODING 163
SWIDTH 553 0
DWIDTH 20 0
BBX 20 27 0 0
BITMAP
01F800
07FE00
1FFF00
1FFF80
3E07C0
3C03C0
7803E0
780000
780000
780000
780000
3C0000
FFFC00
FFFC00
FFFC00
07C000
03C000
03E0F0
01E0F0
01E0F0
01E0F0
01E1F0
01E1E0
03EFE0
3FFFC0
3FFF80
3FFE00
ENDCHAR
STARTCHAR 00A4
ENCODING 164
SWIDTH 553 0
DWIDTH 20 0
BBX 18 17 1 3
BITMAP
600180
F3F3C0
7FFF80
3FFF00
3E1F00
3C0F00
780780
780780
780780
780780
780780
3C0F00
3E1F00
3FFF00
7FFFC0
F3F3C0
600180
ENDCHAR
STARTCHAR 00A5
ENCODING 165
SWIDTH 553 0
DWIDTH 20 0
BBX 20 27 0 0
BITMAP
F000F0
7801E0
7801E0
3C03C0
3C03C0
1E0780
1E0780
0F0F00
0F0F00
079E00
7F9FE0
7FFFE0
7FFFE0
01F800
01F800
00F000
00F000
7FFFE0
7FFFE0
7FFFE0
00F000
00F000
00F000
00F000
00F000
00F000
00F000
ENDCHAR
STARTCHAR 00A6
ENCODING 166
SWIDTH 553 0
DWIDTH 20 0
BBX 4 31 8 -4
BITMAP
F0
F0
F0
F0
F0
F0
F0
F0
F0
F0
F0
F0
F0
00
00
00
00
00
00
F0
F0
F0
F0
F0
F0
F0
F0
F0
F0
F0
F0
ENDCHAR
STARTCHAR 00A7
ENCODING 167
SWIDTH 581 0
DWIDTH 21 0
BBX 18 35 1 -8
BITMAP
03F000
07FC00
1FFE00
1FFE00
3E1F00
3C0F00
3C0F00
3C0000
3E0000
1F8000
1FE000
3FF000
7BFC00
F8FF00
F03F80
F00FC0
F007C0
F803C0
7E03C0
7F83C0
1FE780
07FF80
01FE00
007E00
003F00
000F80
000780
780780
780780
7C0780
3C0F00
3E1F00
1FFE00
0FFC00
03F000
ENDCHAR
STARTCHAR 00A8
ENCODING 168
SWIDTH 553 0
DWIDTH 20 0
BBX 10 4 5 23
BITMAP
F3C0
F3C0
F3C0
F3C0
ENDCHAR
STARTCHAR 00A9
ENCODING 169
SWIDTH 803 0
DWIDTH 29 0
BBX 27 27 1 0
BITMAP
003F8000
01FFF000
03FFF800
07C07E00
0F001F00
1C0F0700
387FC380
38FFE3C0
71F0F1C0
71C071C0
E1C030E0
E38000E0
E38000E0
E38000E0
E38000E0
E38000E0
E3C030E0
71C071C0
71F0F1C0
78FFE3C0
387FC380
1C1F0700
1F001F00
0FC03E00
03FFF800
01FFF000
003F8000
ENDCHAR
STARTCHAR 00AA
ENCODING 170
SWIDTH 387 0
DWIDTH 14 0
BBX 13 11 0 16
BITMAP
0FB8
3FF8
7FF8
7078
E038
E038
E038
7078
7FF8
3FF8
0FB8
ENDCHAR
STARTCHAR 00AB
ENCODING 171
SWIDTH 360 0
DWIDTH 13 0
BBX 11 13 1 4
BITMAP
0820
1860
38E0
79E0
F3C0
E380
C300
E380
F3C0
79E0
38E0
1860
0820
ENDCHAR
STARTCHAR 00AC
ENCODING 172
SWIDTH 609 0
DWIDTH 22 0
BBX 18 10 2 3
BITMAP
FFFFC0
FFFFC0
FFFFC0
0003C0
0003C0
0003C0
0003C0
0003C0
0003C0
0003C0
ENDCHAR
STARTCHAR 00AE
ENCODING 174
SWIDTH 803 0
DWIDTH 29 0
BBX 27 27 1 0
BITMAP
003F8000
01FFF000
03FFFC00
0F807E00
1F001F00
1C000780
39FF8380
79FFE3C0
71FFF1C0
71C071E0
E1C070E0
E1C0F0E0
E1FFE0E0
E1FF80E0
E1FFE0E0
E1C0F0E0
E1C070E0
71C071C0
71C071C0
39C07380
3DC07780
1E000700
0F001E00
07C07C00
03FFF800
01FFF000
003F8000
ENDCHAR
STARTCHAR 00AF
ENCODING 175
SWIDTH 553 0
DWIDTH 20 0
BBX 13 3 4 24
BITMAP
FFF8
FFF8
FFF8
ENDCHAR
STARTCHAR 00B0
ENCODING 176
SWIDTH 387 0
DWIDTH 14 0
BBX 10 11 2 15
BITMAP
1E00
3F80
7380
E1C0
C0C0
C0C0
C0C0
E1C0
7380
3F80
1E00
ENDCHAR
STARTCHAR 00B1
ENCODING 177
SWIDTH 609 0
DWIDTH 22 0
BBX 18 21 2 -2
BITMAP
01E000
01E000
01E000
01E000
01E000
01E000
FFFFC0
FFFFC0
FFFFC0
01E000
01E000
01E000
01E000
01E000
01E000
000000
000000
000000
FFFFC0
FFFFC0
FFFFC0
ENDCHAR
STARTCHAR 00B2
ENCODING 178
SWIDTH 360 0
DWIDTH 13 0
BBX 11 16 1 11
BITMAP
1F00
3F80
7FC0
F1E0
E0E0
E0E0
00E0
01C0
03C0
0780
0E00
3C00
7800
FFE0
FFE0
FFE0
ENDCHAR
STARTCHAR 00B3
ENCODING 179
SWIDTH 360 0
DWIDTH 13 0
BBX 12 16 0 11
BITMAP
0F00
3FC0
3FC0
70E0
00E0
00E0
07C0
07C0
07E0
00F0
0070
E070
F0F0
7FE0
3FC0
1F00
ENDCHAR
STARTCHAR 00B4
ENCODING 180
SWIDTH 553 0
DWIDTH 20 0
BBX 10 7 6 22
BITMAP
0180
0380
0FC0
3F80
FE00
7800
2000
ENDCHAR
STARTCHAR 00B5
ENCODING 181
SWIDTH 636 0
DWIDTH 23 0
BBX 17 27 3 -7
BITMAP
F00780
F00780
F00780
F00780
F00780
F00780
F00780
F00780
F00780
F00780
F00780
F00780
F00780
F00F80
F80F80
FC1F80
FF7F80
FFFF80
FFF780
F3E780
F00000
F00000
F00000
F00000
F00000
F00000
F00000
ENDCHAR
STARTCHAR 00B6
ENCODING 182
SWIDTH 636 0
DWIDTH 23 0
BBX 20 32 0 -8
BITMAP
07FFF0
1FFFF0
7FFFF0
7FF0F0
FFF0F0
FFF0F0
FFF0F0
FFF0F0
FFF0F0
7FF0F0
7FF0F0
3FF0F0
0FF0F0
00F0F0
00F0F0
00F0F0
00F0F0
00F0F0
00F0F0
00F0F0
00F0F0
00F0F0
00F0F0
00F0F0
00F0F0
00F0F0
00F0F0
00F0F0
00F0F0
00F0F0
00F0F0
00F0F0
ENDCHAR
STARTCHAR 00B7
ENCODING 183
SWIDTH 276 0
DWIDTH 10 0
BBX 4 3 3 7
BITMAP
F0
F0
F0
ENDCHAR
STARTCHAR 00B8
ENCODING 184
SWIDTH 553 0
DWIDTH 20 0
BBX 7 9 6 -8
BITMAP
30
30
78
7E
06
06
C6
7C
38
ENDCHAR
STARTCHAR 00B9
ENCODING 185
SWIDTH 360 0
DWIDTH 13 0
BBX 5 16 4 11
BITMAP
F8
F8
F8
38
38
38
38
38
38
38
38
38
38
38
38
38
ENDCHAR
STARTCHAR 00BA
ENCODING 186
SWIDTH 387 0
DWIDTH 14 0
BBX 12 11 1 16
BITMAP
0F80
3FC0
7FE0
F0F0
E070
E070
E070
F0E0
7FE0
3FC0
1F00
ENDCHAR
STARTCHAR 00BB
ENCODING 187
SWIDTH 360 0
DWIDTH 13 0
BBX 11 13 1 5
BITMAP
8200
C300
E380
F3C0
79E0
38E0
1860
79E0
FBE0
F3C0
E380
C300
8200
ENDCHAR
STARTCHAR 00BC
ENCODING 188
SWIDTH 692 0
DWIDTH 25 0
BBX 24 27 1 0
BITMAP
F801C0
F80180
F80380
380300
380300
380700
380600
380E00
380C00
381C00
381800
38381C
38383C
38307C
38707C
3860FC
00E1DC
00C1DC
01C39C
01C31C
01871C
038E1C
030FFF
070FFF
06001C
0E001C
0E001C
ENDCHAR
STARTCHAR 00BD
ENCODING 189
SWIDTH 720 0
DWIDTH 26 0
BBX 24 27 1 0
BITMAP
F80180
F80380
F80380
380700
380700
380600
380E00
380C00
381C00
381800
383838
3830FC
3871FE
3873CF
38E387
38E387
00C007
01C00F
01800E
03801C
03003C
070078
0700F0
0E01E0
0E03FF
0C03FF
1C03FF
ENDCHAR
STARTCHAR 00BE
ENCODING 190
SWIDTH 775 0
DWIDTH 28 0
BBX 28 27 0 0
BITMAP
0F001C00
3FC01800
3FC03800
70E03800
00E03000
00E07000
07C06000
07C0E000
07E0C000
00F1C000
0071C000
E07381C0
F0F383C0
7FE303C0
3FC707C0
1F060FC0
000E0DC0
000E19C0
001C39C0
001C31C0
001871C0
0038E1C0
0030FFF0
0070FFF0
007001C0
00E001C0
00E001C0
ENDCHAR
STARTCHAR 00BF
ENCODING 191
SWIDTH 526 0
DWIDTH 19 0
BBX 17 27 1 -7
BITMAP
01E000
01E000
01E000
01E000
000000
000000
000000
01E000
01E000
03E000
03C000
07C000
0F8000
1F0000
3E0000
7C0000
780000
F80000
F00000
F00780
F00780
F80780
780F00
7E1F00
3FFE00
0FFC00
03F000
ENDCHAR
STARTCHAR 00C0
ENCODING 192
SWIDTH 692 0
DWIDTH 25 0
BBX 24 35 0 1
BITMAP
01C000
03F000
01F800
00FE00
003F00
000E00
000200
000000
003C00
003C00
007E00
007E00
007E00
00FF00
00FF00
01E780
01E780
01E780
03C3C0
03C3C0
07C3E0
0781E0
0781E0
0F81F0
0FFFF0
0FFFF0
1FFFF8
1E0078
3C007C
3C003C
3C003C
78003E
78001E
70001E
F0000F
ENDCHAR
STARTCHAR 00C1
ENCODING 193
SWIDTH 692 0
DWIDTH 25 0
BBX 24 35 0 0
BITMAP
000180
000780
000FC0
003F80
00FE00
00F000
004000
000000
003C00
003E00
007E00
007E00
007F00
00FF00
00F700
01E780
01E780
01E3C0
03C3C0
03C3C0
03C1E0
0781E0
0781E0
0F80F0
0FFFF0
0FFFF0
1FFFF8
1E0078
3E003C
3C003C
3C003C
78001E
78001E
78000E
F0000F
ENDCHAR
STARTCHAR 00C2
ENCODING 194
SWIDTH 692 0
DWIDTH 25 0
BBX 24 34 0 0
BITMAP
003C00
007E00
00FF00
01E780
07C3C0
000000
000000
003C00
003C00
007E00
007E00
007F00
00FF00
00FF00
01E780
01E780
01E780
03C3C0
03C3C0
03C3E0
0781E0
0781E0
0F81F0
0FFFF0
0FFFF0
1FFFF8
1E0078
3E007C
3C003C
3C003C
78001E
78001E
78001E
F0000F
ENDCHAR
STARTCHAR 00C3
ENCODING 195
SWIDTH 692 0
DWIDTH 25 0
BBX 24 32 0 0
BITMAP
01F080
07FFC0
03FF80
000000
000000
003C00
003C00
007C00
007E00
00FE00
00FF00
00EF00
01EF00
01E780
01C780
03C7C0
03C3C0
07C3C0
0783E0
0781E0
0F81E0
0FFFF0
0FFFF0
1FFFF8
1E00F8
3E0078
3C007C
3C003C
78003E
78003E
78001E
F0001F
ENDCHAR
STARTCHAR 00C4
ENCODING 196
SWIDTH 692 0
DWIDTH 25 0
BBX 24 33 0 0
BITMAP
01E780
01E780
01E780
01E780
000000
000000
003C00
003C00
007E00
007E00
00FF00
00FF00
00FF00
01E780
01E780
01E780
03C3C0
03C3C0
07C3E0
0781E0
0781E0
0F81F0
0FFFF0
0FFFF0
1FFFF8
1E0078
3C003C
3C003C
3C003C
78001E
78001E
78001E
F0000F
ENDCHAR
STARTCHAR 00C5
ENCODING 197
SWIDTH 692 0
DWIDTH 25 0
BBX 24 35 0 1
BITMAP
003C00
007E00
00E700
00C300
00E700
007E00
003C00
000000
003C00
003C00
007E00
007E00
007E00
00FF00
00FF00
01E780
01E780
01E780
03C3C0
03C3C0
07C3E0
0781E0
0781E0
0F81F0
0FFFF0
0FFFF0
1FFFF8
1E0078
3E007C
3C003C
3C003C
78003E
78001E
78001E
F0000F
ENDCHAR
STARTCHAR 00C6
ENCODING 198
SWIDTH 941 0
DWIDTH 34 0
BBX 31 27 0 0
BITMAP
00007FFE
00007FFE
0000FFFE
0001FFFE
0001FC00
0003FC00
0007FC00
0007BC00
000F3C00
001F3C00
001E3C00
003E3C00
007C3FFE
007C3FFE
00F83FFE
01F83C00
01F03C00
03FFFC00
07FFFC00
07FFFC00
0F803C00
1F003C00
1E003C00
3E003FFE
7C003FFE
78003FFE
F8003FFE
ENDCHAR
STARTCHAR 00C7
ENCODING 199
SWIDTH 775 0
DWIDTH 28 0
BBX 26 36 1 -9
BITMAP
003FC000
00FFF800
03FFFC00
07FFFF00
0FC03F80
1F000F80
3E0007C0
7C000000
78000000
78000000
F0000000
F0000000
F0000000
F0000000
F0000000
F0000000
F8000000
78000000
7C000000
3C000000
3E0007C0
1F000F80
0FC03F00
07FFFE00
03FFFC00
00FFF000
003FC000
000C0000
00080000
001E0000
001F8000
00018000
00018000
00318000
001F0000
000E0000
ENDCHAR
STARTCHAR 00C8
ENCODING 200
SWIDTH 526 0
DWIDTH 19 0
BBX 15 36 2 0
BITMAP
1000
1800
3E00
1F80
0FE0
03E0
00C0
0040
0000
FFFE
FFFE
FFFE
FFFE
F000
F000
F000
F000
F000
F000
F000
F000
FFFE
FFFE
FFFE
F000
F000
F000
F000
F000
F000
F000
F000
FFFE
FFFE
FFFE
FFFE
ENDCHAR
STARTCHAR 00C9
ENCODING 201
SWIDTH 526 0
DWIDTH 19 0
BBX 15 35 2 0
BITMAP
0030
0070
01F8
07F0
1FC0
0F00
0C00
0000
FFFE
FFFE
FFFE
FFFE
F000
F000
F000
F000
F000
F000
F000
F000
FFFE
FFFE
FFFE
F000
F000
F000
F000
F000
F000
F000
F000
FFFE
FFFE
FFFE
FFFE
ENDCHAR
STARTCHAR 00CA
ENCODING 202
SWIDTH 526 0
DWIDTH 19 0
BBX 15 34 2 0
BITMAP
0780
0FC0
1FE0
3CF8
787C
0000
0000
FFFE
FFFE
FFFE
FFFE
F000
F000
F000
F000
F000
F000
F000
F000
FFFE
FFFE
FFFE
F000
F000
F000
F000
F000
F000
F000
F000
FFFE
FFFE
FFFE
FFFE
ENDCHAR
STARTCHAR 00CB
ENCODING 203
SWIDTH 526 0
DWIDTH 19 0
BBX 15 33 2 0
BITMAP
3CF0
3CF0
3CF0
3CF0
0000
0000
FFFE
FFFE
FFFE
FFFE
F000
F000
F000
F000
F000
F000
F000
F000
FFFE
FFFE
FFFE
F000
F000
F000
F000
F000
F000
F000
F000
FFFE
FFFE
FFFE
FFFE
ENDCHAR
STARTCHAR 00CC
ENCODING 204
SWIDTH 249 0
DWIDTH 9 0
BBX 9 36 -2 0
BITMAP
4000
7000
FC00
7E00
1F80
0F80
0380
0000
0000
0780
0780
0780
0780
0780
0780
0780
0780
0780
0780
0780
0780
0780
0780
0780
0780
0780
0780
0780
0780
0780
0780
0780
0780
0780
0780
0780
ENDCHAR
STARTCHAR 00CD
ENCODING 205
SWIDTH 249 0
DWIDTH 9 0
BBX 10 35 2 0
BITMAP
0180
0380
0FC0
3F80
FE00
7800
6000
0000
7800
7800
7800
7800
7800
7800
7800
7800
7800
7800
7800
7800
7800
7800
7800
7800
7800
7800
7800
7800
7800
7800
7800
7800
7800
7800
7800
ENDCHAR
STARTCHAR 00CE
ENCODING 206
SWIDTH 249 0
DWIDTH 9 0
BBX 13 34 -2 0
BITMAP
0780
0FC0
1FE0
3CF0
F878
0000
0000
0780
0780
0780
0780
0780
0780
0780
0780
0780
0780
0780
0780
0780
0780
0780
0780
0780
0780
0780
0780
0780
0780
0780
0780
0780
0780
0780
ENDCHAR
STARTCHAR 00CF
ENCODING 207
SWIDTH 249 0
DWIDTH 9 0
BBX 10 33 0 0
BITMAP
F3C0
F3C0
F3C0
F3C0
0000
0000
1E00
1E00
1E00
1E00
1E00
1E00
1E00
1E00
1E00
1E00
1E00
1E00
1E00
1E00
1E00
1E00
1E00
1E00
1E00
1E00
1E00
1E00
1E00
1E00
1E00
1E00
1E00
ENDCHAR
STARTCHAR 00D0
ENCODING 208
SWIDTH 720 0
DWIDTH 26 0
BBX 25 27 0 0
BITMAP
3FFE0000
3FFFC000
3FFFF000
3FFFF800
3C01FC00
3C007E00
3C003E00
3C001F00
3C000F00
3C000F00
3C000780
3C000780
FFF80780
FFF80780
FFF80780
3C000780
3C000780
3C000F80
3C000F00
3C001F00
3C001E00
3C007E00
3C00FC00
3FFFF800
3FFFF000
3FFFC000
3FFE0000
ENDCHAR
STARTCHAR 00D1
ENCODING 209
SWIDTH 747 0
DWIDTH 27 0
BBX 21 32 3 0
BITMAP
03C100
0FFF80
07FF00
000000
000000
F80078
F80078
FC0078
FE0078
FE0078
FF0078
FF0078
F78078
F3C078
F3C078
F1E078
F1E078
F0F078
F07878
F07878
F03C78
F03E78
F01E78
F00F78
F00F78
F007F8
F003F8
F003F8
F001F8
F001F8
F000F8
F00078
ENDCHAR
STARTCHAR 00D2
ENCODING 210
SWIDTH 858 0
DWIDTH 31 0
BBX 28 35 1 1
BITMAP
00300000
00380000
007E0000
001F8000
000FC000
0003C000
00008000
00000000
001FC000
00FFF800
03FFFC00
07FFFF00
0FC01F80
1F000F80
3E0007C0
3C0003E0
780001E0
780001E0
F80000F0
F00000F0
F00000F0
F00000F0
F00000F0
F00000F0
F80000F0
780001E0
780001E0
3C0003E0
3E0007C0
1F000F80
0FC01F80
07FFFF00
03FFFC00
00FFF800
003FC000
ENDCHAR
STARTCHAR 00D3
ENCODING 211
SWIDTH 858 0
DWIDTH 31 0
BBX 28 35 1 0
BITMAP
00006000
0000E000
0003F000
000FE000
003F8000
001E0000
00180000
00000000
003FC000
00FFF800
03FFFC00
07FFFF00
0FC03F80
1F000F80
3E0007C0
3C0003E0
780001E0
780001E0
F80000F0
F00000F0
F00000F0
F00000F0
F00000F0
F00000F0
F80000F0
780001E0
780001E0
3C0003E0
3E0007C0
1F000F80
0FC01F80
07FFFE00
03FFFC00
00FFF800
003FC000
ENDCHAR
STARTCHAR 00D4
ENCODING 212
SWIDTH 858 0
DWIDTH 31 0
BBX 28 34 1 0
BITMAP
000F0000
001F8000
003FC000
0079E000
01F0F000
00000000
00000000
003FC000
00FFF800
03FFFC00
07FFFF00
0FC03F80
1F000F80
3E0007C0
3C0003E0
780001E0
780001E0
F80000F0
F00000F0
F00000F0
F00000F0
F00000F0
F00000F0
F80000F0
780001E0
780001E0
7C0003E0
3E0007C0
1F000F80
0FC03F00
07FFFE00
03FFFC00
00FFF000
003FC000
ENDCHAR
STARTCHAR 00D5
ENCODING 213
SWIDTH 858 0
DWIDTH 31 0
BBX 28 32 1 0
BITMAP
007C3000
00FFF000
007FF000
00000000
00000000
003FC000
00FFF800
03FFFC00
07FFFF00
0FC03F80
1F000F80
3E0007C0
3C0003E0
780001E0
780001E0
F80000F0
F00000F0
F00000F0
F00000F0
F00000F0
F00000F0
F80000F0
780001E0
780001E0
3C0003E0
3E0007C0
1F000F80
0FC01F00
07FFFE00
03FFFC00
00FFF800
003FC000
ENDCHAR
STARTCHAR 00D6
ENCODING 214
SWIDTH 858 0
DWIDTH 31 0
BBX 28 33 1 0
BITMAP
003DE000
003DE000
003DE000
003DE000
00000000
00000000
001FC000
00FFF800
03FFFC00
07FFFF00
0FC01F80
1F000F80
3E0007C0
3C0003E0
780001E0
780001E0
F80000F0
F00000F0
F00000F0
F00000F0
F00000F0
F00000F0
F80000F0
780001E0
7C0001E0
3C0003E0
3E0007C0
1F000F80
0FC01F80
07FFFF00
03FFFC00
00FFF800
001FC000
ENDCHAR
STARTCHAR 00D7
ENCODING 215
SWIDTH 609 0
DWIDTH 22 0
BBX 17 17 2 1
BITMAP
200200
700700
F80F80
7C1F00
3E3E00
1F7C00
0FF800
07F000
03E000
07F000
0FF800
1F7C00
3E3E00
7C1F00
F80F80
700700
200200
ENDCHAR
STARTCHAR 00D8
ENCODING 216
SWIDTH 858 0
DWIDTH 31 0
BBX 28 31 1 -2
BITMAP
00000100
00000380
003FC3C0
00FFF780
03FFFF80
07FFFF00
0FC03F00
1F003F80
3E007FC0
3C00FBE0
7800F1E0
7801E1E0
F803E0F0
F007C0F0
F00780F0
F00F00F0
F01F00F0
F03E00F0
F83C00F0
787801E0
78F801E0
3DF003E0
3FE007C0
1FC00F80
0FC03F00
0FFFFE00
0FFFFC00
1EFFF000
3E3FC000
1C000000
08000000
ENDCHAR
STARTCHAR 00D9
ENCODING 217
SWIDTH 636 0
DWIDTH 23 0
BBX 18 35 3 1
BITMAP
0C0000
1F0000
0FC000
07F000
01F000
006000
002000
000000
F003C0
F003C0
F003C0
F003C0
F003C0
F003C0
F003C0
F003C0
F003C0
F003C0
F003C0
F003C0
F003C0
F003C0
F003C0
F003C0
F003C0
F003C0
F003C0
F003C0
F803C0
780780
7C0F80
3FFF00
3FFF00
0FFC00
03F000
ENDCHAR
STARTCHAR 00DA
ENCODING 218
SWIDTH 636 0
DWIDTH 23 0
BBX 17 35 3 0
BITMAP
000800
003C00
007E00
01FC00
03F000
03C000
010000
000000
F00780
F00780
F00780
F00780
F00780
F00780
F00780
F00780
F00780
F00780
F00780
F00780
F00780
F00780
F00780
F00780
F00780
F00780
F00780
F00780
F00780
780F00
7C1F00
3FFE00
3FFE00
0FF800
03E000
ENDCHAR
STARTCHAR 00DB
ENCODING 219
SWIDTH 636 0
DWIDTH 23 0
BBX 18 34 3 0
BITMAP
01E000
03F000
07F800
0F3C00
1E1E00
000000
000000
F003C0
F003C0
F003C0
F003C0
F003C0
F003C0
F003C0
F003C0
F003C0
F003C0
F003C0
F003C0
F003C0
F003C0
F003C0
F003C0
F003C0
F003C0
F003C0
F003C0
F803C0
780780
7C0F80
3FFF00
3FFF00
0FFC00
03F000
ENDCHAR
STARTCHAR 00DC
ENCODING 220
SWIDTH 636 0
DWIDTH 23 0
BBX 18 33 3 0
BITMAP
0F3C00
0F3C00
0F3C00
0F3C00
000000
000000
F003C0
F003C0
F003C0
F003C0
F003C0
F003C0
F003C0
F003C0
F003C0
F003C0
F003C0
F003C0
F003C0
F003C0
F003C0
F003C0
F003C0
F003C0
F003C0
F003C0
F803C0
780780
7C0F80
3FFF00
3FFF00
0FFC00
03F000
ENDCHAR
STARTCHAR 00DD
ENCODING 221
SWIDTH 581 0
DWIDTH 21 0
BBX 21 35 1 0
BITMAP
000300
000F00
003F80
00FF00
01F800
01E000
008000
000000
F000F8
F800F0
7801E0
7C01E0
3C03C0
3E03C0
1E0780
1F0780
0F0F00
0F8F00
079E00
079E00
03FC00
03FC00
01F800
01F800
00F000
00F000
00F000
00F000
00F000
00F000
00F000
00F000
00F000
00F000
00F000
ENDCHAR
STARTCHAR 00DE
ENCODING 222
SWIDTH 553 0
DWIDTH 20 0
BBX 18 27 2 0
BITMAP
F00000
F00000
F00000
F00000
F00000
F00000
FFF000
FFFE00
FFFF00
F01F80
F00780
F007C0
F003C0
F003C0
F003C0
F003C0
F007C0
F00780
F01F80
FFFF00
FFFE00
FFF000
F00000
F00000
F00000
F00000
F00000
ENDCHAR
STARTCHAR 00DF
ENCODING 223
SWIDTH 636 0
DWIDTH 23 0
BBX 20 27 2 0
BITMAP
07E000
1FF800
3FFC00
7FFE00
781E00
F81F00
F00F00
F00F00
F00F00
F00F00
F01E00
F03E00
F0FC00
F0FF80
F0FFC0
F007E0
F001E0
F000F0
F000F0
F000F0
FE00F0
FE01F0
FF03E0
FFEFE0
F7FFC0
F3FF00
F0FC00
ENDCHAR
STARTCHAR 00E0
ENCODING 224
SWIDTH 692 0
DWIDTH 25 0
BBX 22 29 1 0
BITMAP
010000
01C000
03F000
01FC00
007F00
001E00
000E00
000000
000000
00FC3C
07FF3C
0FFFBC
1FCFFC
3E01FC
7C00FC
78007C
F8003C
F0003C
F0003C
F0003C
F0003C
F8003C
78007C
7C00FC
3E01FC
3FCFFC
1FFFBC
07FF3C
01FC3C
ENDCHAR
STARTCHAR 00E1
ENCODING 225
SWIDTH 692 0
DWIDTH 25 0
BBX 22 29 1 0
BITMAP
000300
000700
001F80
007F00
01FC00
00F000
004000
000000
000000
01FC3C
07FF3C
0FFFBC
1FCFFC
3E01FC
7C00FC
78007C
F8003C
F0003C
F0003C
F0003C
F0003C
F8003C
78007C
7C00FC
3E01FC
3FCFFC
1FFFBC
07FF3C
01FC3C
ENDCHAR
STARTCHAR 00E2
ENCODING 226
SWIDTH 692 0
DWIDTH 25 0
BBX 22 28 1 0
BITMAP
007C00
00FE00
01FF00
03E780
07C3C0
000000
000000
000000
00FC3C
07FF3C
0FFFBC
1FCFFC
3E01FC
7C00FC
78007C
F8003C
F0003C
F0003C
F0003C
F0003C
F8003C
78007C
7C00FC
3E01FC
1FEFFC
0FFFBC
07FF3C
01FC3C
ENDCHAR
STARTCHAR 00E3
ENCODING 227
SWIDTH 692 0
DWIDTH 25 0
BBX 22 27 1 0
BITMAP
03E080
07FFC0
03FFC0
020F00
000000
000000
000000
01FC3C
07FF3C
0FFFBC
1FCFFC
3E01FC
7C00FC
78007C
F8003C
F0003C
F0003C
F0003C
F0003C
F8003C
78007C
7C00FC
3E01FC
3FCFFC
1FFFBC
07FF3C
01FC3C
ENDCHAR
STARTCHAR 00E4
ENCODING 228
SWIDTH 692 0
DWIDTH 25 0
BBX 22 27 1 0
BITMAP
01EF00
01EF00
01EF00
01EF00
000000
000000
000000
00FC3C
07FF3C
0FFFBC
1FCFFC
3E01FC
7C00FC
78007C
F8003C
F0003C
F0003C
F0003C
F0003C
F8003C
78007C
7C00FC
3E01FC
1FEFFC
0FFFBC
07FF3C
01FC3C
ENDCHAR
STARTCHAR 00E5
ENCODING 229
SWIDTH 692 0
DWIDTH 25 0
BBX 22 30 1 0
BITMAP
003800
007C00
00EE00
00C600
00C600
00EE00
007C00
003800
000000
000000
00FC3C
07FF3C
0FFFBC
1FCFFC
3E01FC
7C00FC
78007C
F8003C
F0003C
F0003C
F0003C
F0003C
F8003C
78007C
7C00FC
3E01FC
3FCFFC
0FFFBC
07FF3C
01FC3C
ENDCHAR
STARTCHAR 00E6
ENCODING 230
SWIDTH 1135 0
DWIDTH 41 0
BBX 39 20 1 0
BITMAP
00FC3C3F00
07FFBDFFC0
0FFFFFFFF0
1FCFFFF7F8
3E01FF8078
7C00FF003C
78007E003C
F0007C001E
F0003C001E
F0003FFFFE
F0003FFFFE
F0003FFFFE
F8003C0000
78007E0000
7C00FF003C
3E01FF8078
1FCFFFF7F8
0FFFFFFFF0
07FF3CFFC0
01FC3C3F00
ENDCHAR
STARTCHAR 00E7
ENCODING 231
SWIDTH 636 0
DWIDTH 23 0
BBX 20 29 1 -9
BITMAP
01FC00
07FF00
0FFFC0
1FDFE0
3E03E0
7C01F0
7800F0
F80000
F00000
F00000
F00000
F00000
F00000
7800F0
7C00F0
3E01E0
3F8FE0
1FFFC0
07FF00
01FC00
006000
004000
00F000
00FC00
000C00
000C00
018C00
00F800
007000
ENDCHAR
STARTCHAR 00E8
ENCODING 232
SWIDTH 636 0
DWIDTH 23 0
BBX 21 29 1 0
BITMAP
020000
038000
07E000
03F800
00FE00
003C00
001C00
000000
000000
01FC00
07FF00
0FFFC0
1FDFE0
3E03E0
7C00F0
7800F0
F00078
F00078
FFFFF8
FFFFF8
FFFFF8
F00000
780000
7C00F0
3E01E0
3FDFE0
0FFFC0
07FF00
01FC00
ENDCHAR
STARTCHAR 00E9
ENCODING 233
SWIDTH 636 0
DWIDTH 23 0
BBX 21 29 1 0
BITMAP
000300
000F00
003F80
00FF00
03F800
01E000
008000
000000
000000
00FC00
07FF00
0FFFC0
1FFFE0
3E03E0
7C00F0
7800F0
F00078
F00078
FFFFF8
FFFFF8
FFFFF8
F00000
780000
7C00F0
3E01E0
1FEFE0
0FFFC0
07FF00
01FC00
ENDCHAR
STARTCHAR 00EA
ENCODING 234
SWIDTH 636 0
DWIDTH 23 0
BBX 21 28 1 0
BITMAP
00F800
01FC00
03DE00
078F00
0F0780
000000
000000
000000
01FC00
07FF00
0FFFC0
1FDFE0
3E03E0
7C01F0
7800F0
F00078
F00078
FFFFF8
FFFFF8
FFFFF8
F00000
780000
7C00F0
3E01E0
3FDFE0
1FFFC0
07FF00
01FC00
ENDCHAR
STARTCHAR 00EB
ENCODING 235
SWIDTH 636 0
DWIDTH 23 0
BBX 21 27 1 0
BITMAP
03CF00
03CF00
03CF00
03CF00
000000
000000
000000
00FC00
07FF00
0FFFC0
1FEFE0
3E03E0
7C00F0
7800F0
F00078
F00078
FFFFF8
FFFFF8
FFFFF8
F00000
780000
7C00F0
3E01E0
1FEFE0
0FFFC0
07FF00
01FC00
ENDCHAR
STARTCHAR 00EC
ENCODING 236
SWIDTH 249 0
DWIDTH 9 0
BBX 10 29 -3 1
BITMAP
6000
F800
FE00
3F80
0FC0
0380
0100
0000
0000
0780
0780
0780
0780
0780
0780
0780
0780
0780
0780
0780
0780
0780
0780
0780
0780
0780
0780
0780
0780
ENDCHAR
STARTCHAR 00ED
ENCODING 237
SWIDTH 249 0
DWIDTH 9 0
BBX 10 29 2 0
BITMAP
0080
0380
0FC0
3F80
FE00
7800
6000
0000
0000
7800
7800
7800
7800
7800
7800
7800
7800
7800
7800
7800
7800
7800
7800
7800
7800
7800
7800
7800
7800
ENDCHAR
STARTCHAR 00EE
ENCODING 238
SWIDTH 249 0
DWIDTH 9 0
BBX 14 28 -3 0
BITMAP
0780
0FC0
1FE0
3CF0
F87C
0000
0000
0000
0780
0780
0780
0780
0780
0780
0780
0780
0780
0780
0780
0780
0780
0780
0780
0780
0780
0780
0780
0780
ENDCHAR
STARTCHAR 00EF
ENCODING 239
SWIDTH 249 0
DWIDTH 9 0
BBX 10 27 0 0
BITMAP
F3C0
F3C0
F3C0
F3C0
0000
0000
0000
1E00
1E00
1E00
1E00
1E00
1E00
1E00
1E00
1E00
1E00
1E00
1E00
1E00
1E00
1E00
1E00
1E00
1E00
1E00
1E00
ENDCHAR
STARTCHAR 00F0
ENCODING 240
SWIDTH 664 0
DWIDTH 24 0
BBX 22 27 1 0
BITMAP
038180
1FFFC0
03FF80
03FE00
1FFF00
1F0F80
0807C0
00FBE0
07FFF0
0FFFF0
1FCFF8
3E01F8
7C00F8
78007C
F8003C
F0003C
F0003C
F0003C
F0003C
F8007C
780078
7C00F8
3E01F0
1FCFE0
0FFFC0
07FF80
01FC00
ENDCHAR
STARTCHAR 00F1
ENCODING 241
SWIDTH 636 0
DWIDTH 23 0
BBX 18 27 2 0
BITMAP
0F8400
1FFE00
1FFE00
087800
000000
000000
000000
F1F800
F7FE00
FFFF00
FFBF80
FC0F80
F807C0
F803C0
F003C0
F003C0
F003C0
F003C0
F003C0
F003C0
F003C0
F003C0
F003C0
F003C0
F003C0
F003C0
F003C0
ENDCHAR
STARTCHAR 00F2
ENCODING 242
SWIDTH 664 0
DWIDTH 24 0
BBX 22 29 1 0
BITMAP
010000
01C000
03F000
01F800
007E00
003E00
000C00
000000
000000
00FE00
07FF80
0FFFC0
1FEFF0
3E01F0
7C00F8
780078
F8007C
F0003C
F0003C
F0003C
F0003C
F8003C
780078
7C00F8
3E01F0
1FEFE0
0FFFC0
07FF80
00FE00
ENDCHAR
STARTCHAR 00F3
ENCODING 243
SWIDTH 664 0
DWIDTH 24 0
BBX 22 29 1 0
BITMAP
000300
000700
001F80
007F00
01FC00
00F000
00C000
000000
000000
00FE00
07FF80
0FFFC0
1FCFF0
3E01F0
7C00F8
780078
F8007C
F0003C
F0003C
F0003C
F0003C
F8003C
780078
7C00F8
3E01F0
1FEFE0
0FFFC0
07FF80
00FE00
ENDCHAR
STARTCHAR 00F4
ENCODING 244
SWIDTH 664 0
DWIDTH 24 0
BBX 22 28 1 0
BITMAP
007800
00FC00
01FE00
03CF00
0F8780
000000
000000
000000
00FE00
07FF80
0FFFC0
1FCFE0
3E01F0
7C00F8
780078
F8007C
F0003C
F0003C
F0003C
F0003C
F8007C
780078
7C00F8
3E01F0
1FCFE0
0FFFC0
07FF80
01FC00
ENDCHAR
STARTCHAR 00F5
ENCODING 245
SWIDTH 664 0
DWIDTH 24 0
BBX 22 27 1 0
BITMAP
03E180
0FFF80
07FFC0
020F00
000000
000000
000000
00FE00
07FF80
0FFFC0
1FCFE0
3E01F0
7C00F8
780078
F8007C
F0003C
F0003C
F0003C
F0003C
F8007C
780078
7C00F8
3E01F0
1FEFE0
0FFFC0
07FF80
00FE00
ENDCHAR
STARTCHAR 00F6
ENCODING 246
SWIDTH 664 0
DWIDTH 24 0
BBX 22 27 1 0
BITMAP
01EF00
01EF00
01EF00
01EF00
000000
000000
000000
00FE00
03FF80
0FFFE0
1FEFF0
3E01F0
7C00F8
780078
F8003C
F0003C
F0003C
F0003C
F0003C
F8003C
780078
7C00F8
3E01F0
1FEFE0
0FFFC0
07FF80
00FE00
ENDCHAR
STARTCHAR 00F7
ENCODING 247
SWIDTH 609 0
DWIDTH 22 0
BBX 18 17 2 0
BITMAP
01E000
01E000
01E000
000000
000000
000000
000000
FFFFC0
FFFFC0
FFFFC0
000000
000000
000000
01E000
01E000
01E000
01E000
ENDCHAR
STARTCHAR 00F8
ENCODING 248
SWIDTH 664 0
DWIDTH 24 0
BBX 22 24 1 -2
BITMAP
000040
0000E0
00FCF0
07FFE0
0FFFC0
1FDFE0
3E07F0
7C0FF8
781F78
F81E7C
F03C3C
F0783C
F0783C
F0F03C
F9E07C
7BE078
7FC0F8
3F81F0
1FEFE0
0FFFC0
1FFF80
3CFC00
1C0000
080000
ENDCHAR
STARTCHAR 00F9
ENCODING 249
SWIDTH 636 0
DWIDTH 23 0
BBX 18 29 2 1
BITMAP
0C0000
1F0000
1F8000
07E000
01F000
00E000
002000
000000
000000
F003C0
F003C0
F003C0
F003C0
F003C0
F003C0
F003C0
F003C0
F003C0
F003C0
F003C0
F003C0
F003C0
F003C0
F807C0
7C0FC0
7F7FC0
3FFFC0
1FFBC0
07E3C0
ENDCHAR
STARTCHAR 00FA
ENCODING 250
SWIDTH 636 0
DWIDTH 23 0
BBX 18 29 2 0
BITMAP
000400
001E00
007F00
00FE00
03F800
01C000
010000
000000
000000
F003C0
F003C0
F003C0
F003C0
F003C0
F003C0
F003C0
F003C0
F003C0
F003C0
F003C0
F003C0
F003C0
F003C0
F807C0
7C0FC0
7F7FC0
3FFFC0
1FFBC0
07E3C0
ENDCHAR
STARTCHAR 00FB
ENCODING 251
SWIDTH 636 0
DWIDTH 23 0
BBX 18 28 2 0
BITMAP
01E000
03F000
07F800
0F3C00
3E1E00
000000
000000
000000
F003C0
F003C0
F003C0
F003C0
F003C0
F003C0
F003C0
F003C0
F003C0
F003C0
F003C0
F003C0
F003C0
F003C0
F807C0
7C0FC0
7F7FC0
3FFFC0
1FFBC0
07E3C0
ENDCHAR
STARTCHAR 00FC
ENCODING 252
SWIDTH 636 0
DWIDTH 23 0
BBX 18 27 2 0
BITMAP
07BC00
07BC00
07BC00
07BC00
000000
000000
000000
F003C0
F003C0
F003C0
F003C0
F003C0
F003C0
F003C0
F003C0
F003C0
F003C0
F003C0
F003C0
F003C0
F003C0
7807C0
7C0FC0
7FBFC0
3FFFC0
0FFBC0
03F3C0
ENDCHAR
STARTCHAR 00FD
ENCODING 253
SWIDTH 581 0
DWIDTH 21 0
BBX 20 36 0 -7
BITMAP
000300
000F00
003F80
007F00
01F800
01E000
008000
000000
000000
F000F0
7800E0
7801E0
7801E0
3C01C0
3C03C0
1E0380
1E0780
1E0780
0F0700
0F0F00
070E00
079E00
079E00
03DC00
03FC00
01F800
01F800
01F000
00F000
00F000
01E000
01E000
03C000
03C000
03C000
078000
ENDCHAR
STARTCHAR 00FE
ENCODING 254
SWIDTH 692 0
DWIDTH 25 0
BBX 22 34 2 -7
BITMAP
F00000
F00000
F00000
F00000
F00000
F00000
F00000
F0FE00
F3FF80
F7FFE0
FFDFF0
FE01F0
FC00F8
F80078
F8007C
F0003C
F0003C
F0003C
F0003C
F8003C
F80078
FC00F8
FE01F0
FFDFF0
F7FFE0
F3FF80
F0FE00
F00000
F00000
F00000
F00000
F00000
F00000
F00000
ENDCHAR
STARTCHAR 00FF
ENCODING 255
SWIDTH 581 0
DWIDTH 21 0
BBX 20 34 0 -7
BITMAP
079E00
079E00
079E00
079E00
000000
000000
000000
F000F0
7800E0
7801E0
7801E0
3C03C0
3C03C0
1C0380
1E0780
1E0700
0F0F00
0F0F00
070E00
079E00
079C00
03BC00
03FC00
01F800
01F800
01F000
00F000
00F000
01E000
01E000
03C000
03C000
038000
078000
ENDCHAR
STARTCHAR 0131
ENCODING 305
SWIDTH 249 0
DWIDTH 9 0
BBX 4 20 2 0
BITMAP
F0
F0
F0
F0
F0
F0
F0
F0
F0
F0
F0
F0
F0
F0
F0
F0
F0
F0
F0
F0
ENDCHAR
STARTCHAR 0141
ENCODING 321
SWIDTH 443 0
DWIDTH 16 0
BBX 16 27 0 0
BITMAP
1E00
1E00
1E00
1E00
1E00
1E00
1E10
1E30
1EF0
1FF0
1FE0
1FC0
3F00
7E00
FE00
FE00
DE00
9E00
1E00
1E00
1E00
1E00
1E00
1FFF
1FFF
1FFF
1FFF
ENDCHAR
STARTCHAR 0142
ENCODING 322
SWIDTH 276 0
DWIDTH 10 0
BBX 9 27 1 0
BITMAP
3C00
3C00
3C00
3C00
3C00
3C00
3C00
3C00
3D80
3F80
3F80
3F00
7E00
FC00
FC00
FC00
BC00
3C00
3C00
3C00
3C00
3C00
3C00
3C00
3C00
3C00
3C00
ENDCHAR
STARTCHAR 0152
ENCODING 338
SWIDTH 1107 0
DWIDTH 40 0
BBX 37 27 1 0
BITMAP
003FC0FFF8
00FFF8FFF8
03FFFEFFF8
07FFFFFFF8
0FC03FF000
1F000FF000
3E0007F000
3C0003F000
780001F000
780001F000
F80001F000
F00000F000
F00000FFF8
F00000FFF8
F00000FFF8
F00000F000
F00000F000
780001F000
780001F000
7C0003F000
3E0007F000
1F000FF000
1FC03FF000
0FFFFFFFF8
03FFFEFFF8
01FFF8FFF8
003FC0FFF8
ENDCHAR
STARTCHAR 0153
ENCODING 339
SWIDTH 1135 0
DWIDTH 41 0
BBX 39 20 1 0
BITMAP
00FC007F00
07FF81FFC0
0FFFC3FFF0
1FCFE7F7F8
3E01FF8078
7C00FE003C
78007E003C
F8003C001E
F0003C001E
F0003FFFFE
F0003FFFFE
F0003FFFFE
F8003C0000
78007E0000
7C00FF003C
3E01FF8078
1FDFE7F7F8
0FFFC3FFF0
07FF81FFC0
00FE007F00
ENDCHAR
STARTCHAR 0160
ENCODING 352
SWIDTH 498 0
DWIDTH 18 0
BBX 17 34 1 0
BITMAP
1E1F00
0F3C00
07FC00
03F800
01F000
000000
000000
03F000
0FFC00
1FFE00
3FFF00
3C0F80
780780
780780
780000
780000
7C0000
3F0000
3FE000
1FF800
07FE00
00FF00
003F00
000F80
000780
000780
F00780
F00780
F80F80
7C0F00
7FFF00
3FFE00
0FFC00
03F000
ENDCHAR
STARTCHAR 0161
ENCODING 353
SWIDTH 415 0
DWIDTH 15 0
BBX 14 28 1 0
BITMAP
787C
3CF0
1FE0
0FC0
0780
0000
0000
0000
07C0
1FF0
3FF8
7EFC
787C
783C
7800
7E00
3FC0
1FF0
07F8
01FC
007C
F03C
F03C
F83C
7EF8
7FF8
1FF0
0FC0
ENDCHAR
STARTCHAR 0178
ENCODING 376
SWIDTH 581 0
DWIDTH 21 0
BBX 20 33 1 0
BITMAP
079E00
079E00
079E00
079E00
000000
000000
F000F0
F801F0
7801E0
7C03E0
3C03C0
3E03C0
1E0780
1F0780
0F0F00
0F0F00
079E00
079E00
03FC00
03FC00
01F800
01F800
00F000
00F000
00F000
00F000
00F000
00F000
00F000
00F000
00F000
00F000
00F000
ENDCHAR
STARTCHAR 017D
ENCODING 381
SWIDTH 470 0
DWIDTH 17 0
BBX 16 34 0 0
BITMAP
3E1E
1F3C
0F78
07F0
03E0
0000
0000
7FFF
7FFF
7FFF
7FFF
001E
003E
003C
007C
00F8
00F8
01F0
01E0
03E0
03C0
07C0
0780
0F00
1F00
1E00
3E00
3C00
7800
7800
FFFF
FFFF
FFFF
FFFF
ENDCHAR
STARTCHAR 017E
ENCODING 382
SWIDTH 415 0
DWIDTH 15 0
BBX 14 28 0 0
BITMAP
7C3C
3E78
1EF0
0FE0
07C0
0000
0000
0000
7FF8
7FF8
7FF8
0078
0078
00F0
01E0
01E0
03C0
0780
0F80
0F00
1E00
3E00
3C00
7800
F800
FFFC
FFFC
FFFC
ENDCHAR
STARTCHAR 0192
ENCODING 402
SWIDTH 553 0
DWIDTH 20 0
BBX 18 36 1 -6
BITMAP
000040
0003C0
000FC0
000F80
001E00
001C00
003C00
003C00
003800
03FF00
03FF00
03FF00
007000
007000
007000
00F000
00F000
00F000
00E000
00E000
00E000
01E000
01E000
01E000
01C000
01C000
01C000
03C000
03C000
038000
038000
078000
0F0000
FF0000
FE0000
F80000
ENDCHAR
STARTCHAR 02C6
ENCODING 710
SWIDTH 553 0
DWIDTH 20 0
BBX 13 5 3 23
BITMAP
0780
0FC0
1FE0
3CF0
F878
ENDCHAR
STARTCHAR 02C7
ENCODING 711
SWIDTH 553 0
DWIDTH 20 0
BBX 13 5 4 23
BITMAP
F0F8
79E0
3FC0
1F80
0F00
ENDCHAR
STARTCHAR 02D8
ENCODING 728
SWIDTH 553 0
DWIDTH 20 0
BBX 14 4 3 22
BITMAP
F03C
7FF8
3FF0
1FE0
ENDCHAR
STARTCHAR 02D9
ENCODING 729
SWIDTH 553 0
DWIDTH 20 0
BBX 4 4 8 23
BITMAP
F0
F0
F0
F0
ENDCHAR
STARTCHAR 02DA
ENCODING 730
SWIDTH 553 0
DWIDTH 20 0
BBX 8 8 6 22
BITMAP
3C
7E
E7
C3
C3
E7
7E
3C
ENDCHAR
STARTCHAR 02DB
ENCODING 731
SWIDTH 553 0
DWIDTH 20 0
BBX 7 7 7 -7
BITMAP
38
70
E0
E0
F0
FE
3E
ENDCHAR
STARTCHAR 02DC
ENCODING 732
SWIDTH 553 0
DWIDTH 20 0
BBX 13 4 3 23
BITMAP
7C30
FFF8
FFF8
41E0
ENDCHAR
STARTCHAR 02DD
ENCODING 733
SWIDTH 553 0
DWIDTH 20 0
BBX 14 5 4 23
BITMAP
0F3C
1E78
3CF0
79E0
F3C0
ENDCHAR
STARTCHAR 2013
ENCODING 8211
SWIDTH 498 0
DWIDTH 18 0
BBX 16 3 1 9
BITMAP
FFFF
FFFF
FFFF
ENDCHAR
STARTCHAR 2014
ENCODING 8212
SWIDTH 996 0
DWIDTH 36 0
BBX 34 3 1 9
BITMAP
FFFFFFFFC0
FFFFFFFFC0
FFFFFFFFC0
ENDCHAR
STARTCHAR 2018
ENCODING 8216
SWIDTH 276 0
DWIDTH 10 0
BBX 4 9 3 17
BITMAP
10
70
F0
E0
E0
F0
F0
F0
F0
ENDCHAR
STARTCHAR 2019
ENCODING 8217
SWIDTH 276 0
DWIDTH 10 0
BBX 4 9 3 17
BITMAP
F0
F0
F0
F0
70
70
70
E0
C0
ENDCHAR
STARTCHAR 201A
ENCODING 8218
SWIDTH 276 0
DWIDTH 10 0
BBX 4 9 3 -5
BITMAP
F0
F0
F0
F0
70
70
F0
E0
80
ENDCHAR
STARTCHAR 201C
ENCODING 8220
SWIDTH 415 0
DWIDTH 15 0
BBX 10 9 3 17
BITMAP
1040
71C0
F3C0
E380
E380
F3C0
F3C0
F3C0
F3C0
ENDCHAR
STARTCHAR 201D
ENCODING 8221
SWIDTH 415 0
DWIDTH 15 0
BBX 10 9 3 17
BITMAP
F3C0
F3C0
F3C0
F3C0
71C0
71C0
71C0
E380
C300
ENDCHAR
STARTCHAR 201E
ENCODING 8222
SWIDTH 415 0
DWIDTH 15 0
BBX 10 9 3 -5
BITMAP
F3C0
F3C0
F3C0
F3C0
71C0
71C0
F3C0
E380
8200
ENDCHAR
STARTCHAR 2020
ENCODING 8224
SWIDTH 581 0
DWIDTH 21 0
BBX 16 35 2 -9
BITMAP
03C0
03C0
03C0
03C0
03C0
03C0
03C0
03C0
FFFF
FFFF
FFFF
03C0
03C0
03C0
03C0
03C0
03C0
03C0
03C0
03C0
03C0
03C0
03C0
03C0
03C0
03C0
03C0
03C0
03C0
03C0
03C0
03C0
03C0
03C0
03C0
ENDCHAR
STARTCHAR 2021
ENCODING 8225
SWIDTH 581 0
DWIDTH 21 0
BBX 16 35 2 -9
BITMAP
03C0
03C0
03C0
03C0
03C0
03C0
03C0
FFFF
FFFF
FFFF
03C0
03C0
03C0
03C0
03C0
03C0
03C0
03C0
03C0
03C0
03C0
03C0
03C0
FFFF
FFFF
FFFF
03C0
03C0
03C0
03C0
03C0
03C0
03C0
03C0
03C0
ENDCHAR
STARTCHAR 2022
ENCODING 8226
SWIDTH 609 0
DWIDTH 22 0
BBX 11 11 5 8
BITMAP
1F00
3F80
7FC0
FFE0
FFE0
FFE0
FFE0
FFE0
7FC0
3F80
1F00
ENDCHAR
STARTCHAR 2026
ENCODING 8230
SWIDTH 996 0
DWIDTH 36 0
BBX 28 4 4 1
BITMAP
F00F00F0
F00F00F0
F00F00F0
F00F00F0
ENDCHAR
STARTCHAR 2030
ENCODING 8240
SWIDTH 1218 0
DWIDTH 44 0
BBX 41 27 2 0
BITMAP
0FC01C000000
1FF018000000
3FF838000000
7CF830000000
F87C60000000
F03C60000000
F03CC0000000
F03CC0000000
F83D80000000
7C7B80000000
7FFB00000000
1FE700000000
0FC600000000
000C00000000
000C00000000
00187E01F800
0019FF87FE00
0033FFCFFF00
0033C3CF0F00
006781FE0780
00E781FE0780
00C781FE0780
01C7C1FF0780
0183E3CF8F00
0303FFCFFF00
0301FF87FE00
06007E01F800
ENDCHAR
STARTCHAR 2039
ENCODING 8249
SWIDTH 193 0
DWIDTH 7 0
BBX 5 13 1 4
BITMAP
08
18
38
78
F0
E0
C0
E0
F0
78
38
18
08
ENDCHAR
STARTCHAR 203A
ENCODING 8250
SWIDTH 193 0
DWIDTH 7 0
BBX 5 13 1 5
BITMAP
80
C0
E0
F0
78
38
18
78
F8
F0
E0
C0
80
ENDCHAR
STARTCHAR 2044
ENCODING 8260
SWIDTH 193 0
DWIDTH 7 0
BBX 14 27 -4 0
BITMAP
001C
0018
0038
0038
0030
0070
0060
00E0
00C0
01C0
01C0
0180
0380
0300
0700
0700
0600
0E00
0C00
1C00
1C00
1800
3800
3000
7000
6000
E000
ENDCHAR
STARTCHAR 2122
ENCODING 8482
SWIDTH 996 0
DWIDTH 36 0
BBX 33 14 0 11
BITMAP
FFF1F81F80
FFF1F81F80
FFF1FC3F80
0F01FC3F80
0F01FC3F80
0F01EE7780
0F01EE7780
0F01EF7780
0F01E7E780
0F01E7E780
0F01E7E780
0F01E3C780
0F01E3C780
0F01E3C780
ENDCHAR
STARTCHAR 2212
ENCODING 8722
SWIDTH 609 0
DWIDTH 22 0
BBX 18 3 2 7
BITMAP
FFFFC0
FFFFC0
FFFFC0
ENDCHAR
STARTCHAR FB01
ENCODING 64257
SWIDTH 498 0
DWIDTH 18 0
BBX 14 27 1 0
BITMAP
07BC
0FBC
1FBC
3F3C
3C00
3C00
3C00
FFFC
FFFC
FFFC
3C3C
3C3C
3C3C
3C3C
3C3C
3C3C
3C3C
3C3C
3C3C
3C3C
3C3C
3C3C
3C3C
3C3C
3C3C
3C3C
3C3C
ENDCHAR
STARTCHAR FB02
ENCODING 64258
SWIDTH 498 0
DWIDTH 18 0
BBX 14 27 1 0
BITMAP
07BC
0FBC
1FBC
3F3C
3C3C
3C3C
3C3C
FFFC
FFFC
FFFC
3C3C
3C3C
3C3C
3C3C
3C3C
3C3C
3C3C
3C3C
3C3C
3C3C
3C3C
3C3C
3C3C
3C3C
3C3C
3C3C
3C3C
ENDCHAR
ENDFONT
